<svg xmlns="http://www.w3.org/2000/svg" width="90" height="90" viewBox="0 0 90 90"><defs><style>.a{fill:#2e7b79;}.b{fill:#fff;}</style></defs><g transform="translate(-10 -288)"><circle class="a" cx="45" cy="45" r="45" transform="translate(10 288)"/><g transform="translate(-65.5 -248.5)"><path class="b" d="M-8031.5-1617.5a18.883,18.883,0,0,1-7.4-1.493,18.933,18.933,0,0,1-6.039-4.072,18.933,18.933,0,0,1-4.072-6.04,18.88,18.88,0,0,1-1.493-7.4,18.883,18.883,0,0,1,1.493-7.4,18.93,18.93,0,0,1,4.072-6.039,18.93,18.93,0,0,1,6.039-4.072,18.887,18.887,0,0,1,7.4-1.493,18.887,18.887,0,0,1,7.4,1.493,18.937,18.937,0,0,1,6.039,4.072,18.93,18.93,0,0,1,4.072,6.039,18.883,18.883,0,0,1,1.493,7.4,18.88,18.88,0,0,1-1.493,7.4,18.933,18.933,0,0,1-4.072,6.04,18.934,18.934,0,0,1-6.039,4.072A18.883,18.883,0,0,1-8031.5-1617.5Zm-7.971-20.834a1.4,1.4,0,0,0-1.4,1.4,1.4,1.4,0,0,0,1.4,1.394h6.138v6.138a1.4,1.4,0,0,0,1.394,1.394,1.4,1.4,0,0,0,1.4-1.394v-6.138h6.138a1.4,1.4,0,0,0,1.394-1.394,1.4,1.4,0,0,0-1.4-1.4h-6.136v-6.138a1.4,1.4,0,0,0-1.4-1.394,1.4,1.4,0,0,0-1.4,1.394v6.138Z" transform="translate(8152 2217.999)"/></g></g></svg>