<svg xmlns="http://www.w3.org/2000/svg" width="84" height="68.727" viewBox="0 0 84 68.727"><defs><style>.a{fill:#b93273;}</style></defs><g transform="translate(-146 -461)"><g transform="translate(144.5 456.5)"><path class="a" d="M29.42,18.648a4.773,4.773,0,1,1-4.773-4.773A4.773,4.773,0,0,1,29.42,18.648Z" transform="translate(28.398 14.489)"/><path class="a" d="M21.92,18.648a4.773,4.773,0,1,1-4.773-4.773A4.773,4.773,0,0,1,21.92,18.648Z" transform="translate(16.807 14.489)"/><path class="a" d="M85.271,41.384a13.974,13.974,0,0,0,0-5.04,15.3,15.3,0,0,0-10.729-12.1A34.8,34.8,0,0,0,66.18,13.129,34.329,34.329,0,0,0,12.458,24.24a15.25,15.25,0,0,0-10.729,12.1,13.975,13.975,0,0,0,0,5.04,15.3,15.3,0,0,0,10.729,12.1,34.274,34.274,0,0,0,8.285,11.035,34.146,34.146,0,0,0,45.551,0A34.691,34.691,0,0,0,74.58,53.487a15.266,15.266,0,0,0,10.691-12.1ZM70.227,46.5a10.883,10.883,0,0,1-1.107-.115,27.369,27.369,0,0,1-3.284,7.1,26.662,26.662,0,0,1-44.673,0,27.369,27.369,0,0,1-3.284-7.1,10.883,10.883,0,0,1-1.107.115,7.636,7.636,0,1,1,0-15.273,10.882,10.882,0,0,1,1.107.115,27.369,27.369,0,0,1,3.284-7.1,26.662,26.662,0,0,1,44.673,0,27.369,27.369,0,0,1,3.284,7.1,10.882,10.882,0,0,1,1.107-.115,7.636,7.636,0,1,1,0,15.273Z" transform="translate(0 0)"/></g><path class="a" d="M30.919,61.467a1.717,1.717,0,0,0,2.431,2.426,10.523,10.523,0,0,1,14.86,0,1.712,1.712,0,0,0,2.426,0,1.717,1.717,0,0,0,0-2.426A13.946,13.946,0,0,0,30.919,61.467Z" transform="translate(147.922 444.318)"/></g></svg>