<svg xmlns="http://www.w3.org/2000/svg" width="16.667" height="20" viewBox="0 0 16.667 20"><defs><style>.a{fill:#2e7b79;}</style></defs><g transform="translate(-21.332)"><path class="a" d="M37.481,14.094A5.582,5.582,0,0,1,35.5,9.823V7.5a5.838,5.838,0,0,0-5-5.767v-.9a.833.833,0,0,0-1.667,0v.9a5.837,5.837,0,0,0-5,5.767V9.823a5.588,5.588,0,0,1-1.99,4.277,1.458,1.458,0,0,0,.948,2.566H36.54a1.458,1.458,0,0,0,.941-2.572Zm0,0" transform="translate(0)"/><path class="a" d="M159.351,450.5a3.13,3.13,0,0,0,3.062-2.5h-6.123A3.13,3.13,0,0,0,159.351,450.5Zm0,0" transform="translate(-129.685 -430.5)"/></g></svg>