<svg xmlns="http://www.w3.org/2000/svg" width="45" height="45" viewBox="0 0 45 45"><defs><style>.a{fill:#2e7b79;}.b{fill:#fff;}</style></defs><g transform="translate(-279 -977)"><path class="a" d="M17,0H45a0,0,0,0,1,0,0V25A20,20,0,0,1,25,45H0a0,0,0,0,1,0,0V17A17,17,0,0,1,17,0Z" transform="translate(279 977)"/><g transform="translate(290 990.323)"><g transform="translate(0 -0.005)"><g transform="translate(0 0)"><path class="b" d="M21.641,7.038h-.955L13.9.253A.881.881,0,0,0,12.662,1.5L18.2,7.038H4.324L9.86,1.5A.881.881,0,0,0,8.614.253L1.836,7.038H.881a.881.881,0,1,0,0,1.761h.6l2.054,9.864a.878.878,0,0,0,.86.7H18.123a.881.881,0,0,0,.86-.7L21.037,8.8h.6a.881.881,0,1,0,0-1.761ZM17.407,17.6H5.115L3.281,8.8H19.24Z" transform="translate(0 0.005)"/><path class="b" d="M31.344,52.038a.881.881,0,0,0,.881-.881v-3.52a.881.881,0,1,0-1.759,0v3.52a.881.881,0,0,0,.878.881Z" transform="translate(-23.604 -36.191)"/><path class="b" d="M46.967,52.038a.878.878,0,0,0,.878-.881v-3.52a.881.881,0,1,0-1.759,0v3.52A.881.881,0,0,0,46.967,52.038Z" transform="translate(-35.706 -36.191)"/><path class="b" d="M62.594,52.038a.881.881,0,0,0,.881-.881v-3.52a.881.881,0,1,0-1.759,0v3.52A.881.881,0,0,0,62.594,52.038Z" transform="translate(-47.816 -36.191)"/></g></g></g></g></svg>