<svg xmlns="http://www.w3.org/2000/svg" width="40.426" height="40.426" viewBox="0 0 40.426 40.426"><defs><style>.a{fill:#2e7b79;fill-rule:evenodd;}</style></defs><g transform="translate(-0.265 -0.265)"><g transform="translate(0.265 0.265)"><path class="a" d="M34.753,286.269A20.213,20.213,0,0,0,.265,300.544v20.213H20.478a20.188,20.188,0,0,0,14.275-34.488ZM11.9,297.888a2.65,2.65,0,0,1,1.878.778l.025.027a2.652,2.652,0,0,1-.025,3.728h0a2.656,2.656,0,0,1-3.757,0L10,302.394a2.652,2.652,0,0,1,.025-3.728h0A2.65,2.65,0,0,1,11.9,297.888Zm8.573,0a2.65,2.65,0,0,1,1.877.778h0l.007.007a2.653,2.653,0,0,1-.007,3.747h0l-.007.007a2.653,2.653,0,0,1-3.747-.007h0l-.007-.007a2.653,2.653,0,0,1,.007-3.747h0l.007-.007a2.649,2.649,0,0,1,1.87-.771Zm8.573,0a2.65,2.65,0,0,1,1.879.778l.025.027a2.652,2.652,0,0,1-.025,3.728h0a2.656,2.656,0,0,1-3.757,0l-.025-.027a2.652,2.652,0,0,1,.025-3.728h0a2.65,2.65,0,0,1,1.878-.778Z" transform="translate(-0.265 -280.331)"/></g></g></svg>