<svg xmlns="http://www.w3.org/2000/svg" width="49.8" height="55.303" viewBox="0 0 49.8 55.303"><defs><style>.a{fill:#2e7b79;fill-rule:evenodd;}</style></defs><g transform="translate(-30.949 -5.492)"><path class="a" d="M80.745,116.91c-.094-3.089-3.96-8.14-7.312-8.582a14.571,14.571,0,0,1-7.7-3.9,2.068,2.068,0,0,0-1.314-.612,1.615,1.615,0,0,0-1.306.848,22.159,22.159,0,0,1-3.8,3.921c-.7.614-1.43,1.249-2.1,1.919a1,1,0,0,1-.656.363.82.82,0,0,1-.578-.33,17.009,17.009,0,0,0-2.334-2.019c-.482-.368-.964-.736-1.422-1.135a7.381,7.381,0,0,1-2.892-6.819,2.3,2.3,0,0,0,.01-.27c0-.182,0-.371.087-.459a.305.305,0,0,1,.226-.069,1.032,1.032,0,0,1,.15.012,3.244,3.244,0,0,0,.51.048,1.022,1.022,0,0,0,1.083-.749c.278-.873-.338-1.338-.881-1.748l-.106-.08a16.933,16.933,0,0,1-5.23-6.738,7.174,7.174,0,0,1-.261-5.645,13.555,13.555,0,0,1,4.439-6.538c.327-.255.524-.409.7-.409.16,0,.347.124.666.443,4.365,4.331,8.427,7.079,12.784,8.648a1.491,1.491,0,0,1,1.138,1.972l-.134.716c-.494,2.657-.962,5.166-3.117,7.047a1.315,1.315,0,0,0-.489.919,1.114,1.114,0,0,0,.342.833,1.058,1.058,0,0,0,.777.353,1.674,1.674,0,0,0,.989-.4,7.8,7.8,0,0,0,2.633-3.539,22.194,22.194,0,0,0,1.4-5.9c.063-.76.147-1.242.8-1.533a1.054,1.054,0,0,0,.622-1.339,1.085,1.085,0,0,0-1.084-.791c-2.772-.124-5.111-1.291-7.771-3-4.693-3.022-8.188-5.975-9.995-10.57-.291-.755-.68-1.122-1.191-1.122a1.375,1.375,0,0,0-.538.123,1.172,1.172,0,0,0-.672.648,1.724,1.724,0,0,0,.148,1.317c.343.749.737,1.484,1.155,2.263.2.365.4.741.6,1.136a4.869,4.869,0,0,0-1.859.834,13.543,13.543,0,0,0-5.1,9.616c-.449,3.735,1.441,6.759,3.551,9.471,1.3,1.67,1.2,3.563,1.1,5.393a14.5,14.5,0,0,0,.043,2.884c.009.047-.113.171-.186.245a2,2,0,0,0-.172.192c-1.289,1.755-2.84,3.4-5.429,3.573a8.64,8.64,0,0,0-1.941.423,11.759,11.759,0,0,1-1.4.36c-2.991.49-4.989,2.258-6.107,5.406-.064.18-.149.374-.237.574a2.647,2.647,0,0,0-.357,1.906,1.245,1.245,0,0,0,.759.655,1.47,1.47,0,0,0,.526.109c.818,0,1.075-.888,1.3-1.671.064-.22.126-.433.2-.614A5.9,5.9,0,0,1,38.26,111.5c1.1-.23,2.2-.5,3.3-.765.652-.159,1.3-.317,1.958-.47a2.849,2.849,0,0,1,.637-.079,1.888,1.888,0,0,1,1.465.7c1.08,1.2,2.212,2.377,3.305,3.52q.878.915,1.752,1.838c.737.784,1.293,1.119,1.86,1.119a2.842,2.842,0,0,0,1.856-1.041l.21-.2c.827-.81,1.282-1.257,1.644-1.257.387,0,.775.524,1.548,1.569l.14.189a3.607,3.607,0,0,0,.671.758,1.578,1.578,0,0,0,.921.342.835.835,0,0,0,.716-.357,12.856,12.856,0,0,1,2.335-2.394,10.25,10.25,0,0,0,2.747-3.108,3.176,3.176,0,0,1,2.97-2.127,5.532,5.532,0,0,1,1.547.252,6.929,6.929,0,0,0,.976.2c4.077.538,6.52,2.873,7.472,7.139.144.663.413,1.422,1.219,1.422a1.455,1.455,0,0,0,.257-.023C80.786,118.533,80.759,117.518,80.745,116.91Zm-15.477-9.42-.091.193a3.184,3.184,0,0,1-.188.365,22.225,22.225,0,0,1-4.89,5.773,1.079,1.079,0,0,1-.639.309.819.819,0,0,1-.584-.346c-.44-.5-.69-.864-.165-1.381.718-.7,1.493-1.36,2.243-2a32.026,32.026,0,0,0,3.374-3.183.521.521,0,0,1,.375-.214C64.916,107.006,65.125,107.22,65.268,107.49ZM51.94,114.027c-.062-.077-.122-.153-.182-.217-.622-.646-1.234-1.306-1.847-1.966-.834-.9-1.669-1.8-2.532-2.668a1.26,1.26,0,0,1-.459-.873c.006-.42.372-.767.727-1.1l.184-.177a.78.78,0,0,1,.491-.284c.246,0,.422.322.577.607a3.132,3.132,0,0,0,.187.314,12.51,12.51,0,0,0,2.762,2.558,18.472,18.472,0,0,1,1.891,1.56l.173.16a1.519,1.519,0,0,1,.562.759,4.823,4.823,0,0,1-1.671,1.688.488.488,0,0,1-.267.094C52.307,114.482,52.12,114.25,51.94,114.027Z" transform="translate(0 -57.947)"/><path class="a" d="M63.593,35.684a4.651,4.651,0,0,0,.58.04c1.166,0,1.678-.6,1.712-2,.048-2.244.045-4.447-.01-6.548A28.79,28.79,0,0,1,67.7,16.195a12.008,12.008,0,0,1,5.509-6.356A13.768,13.768,0,0,1,80.119,7.99a13.617,13.617,0,0,1,13.043,9.086,23.161,23.161,0,0,1,1.247,8.719,24.194,24.194,0,0,1-.478,6.411A47.069,47.069,0,0,1,92.4,37.542a8.4,8.4,0,0,1-5.8,5.6l-.152.044a2.334,2.334,0,0,1-.615.123.5.5,0,0,1-.472-.261A3.474,3.474,0,0,0,82.022,41.4c-.346,0-.7.018-1.05.037l-.21.011a3.016,3.016,0,0,0-3.045,2.986,3.162,3.162,0,0,0,2.725,3.491,8.264,8.264,0,0,0,1.148.086A4.185,4.185,0,0,0,84.9,46.628a4.04,4.04,0,0,1,2.1-1.09c4.021-1.035,6.641-3.648,8.009-7.986a1.625,1.625,0,0,1,1.724-1.377,4.227,4.227,0,0,0,4.314-3.508,12.225,12.225,0,0,0-.484-7.139c-.444-1.2-1.137-1.852-2-1.894-1.544-.094-1.692-1.073-1.865-2.206l-.024-.163a21.484,21.484,0,0,0-2.878-8.5,16.794,16.794,0,0,0-13.678-7.27,14.456,14.456,0,0,0-4.556.73C70.821,7.8,67.84,10.172,66.175,13.7a28.3,28.3,0,0,0-2.56,8.117c-.132.918-.465,1.257-1.318,1.342a2.971,2.971,0,0,0-2.758,2.762,35.523,35.523,0,0,0-.444,4.561C59.029,34.042,60.08,35.258,63.593,35.684Zm-.921-9.989.059.1c.45.037.56.354.591.852l.049,1.017c.07,1.452.14,2.907.186,4.355l.008.181c.026.509.006.823-.481.881a1.48,1.48,0,0,1-.188.012,1.151,1.151,0,0,1-1.1-.82,4.6,4.6,0,0,1-.176-1.766c.008-.264.015-.528,0-.79a11.264,11.264,0,0,1,.336-3.209c.131-.5.35-.716.71-.716V25.7Zm34.952.41c.343,0,.6.22.765.655a7.7,7.7,0,0,1,.567,2.974c-.019,1.877-.154,3.257-1.735,3.934a1.729,1.729,0,0,1-.624.167.318.318,0,0,1-.254-.1,1.05,1.05,0,0,1-.09-.771c.081-.614.188-1.225.294-1.837a21.512,21.512,0,0,0,.442-4.147c-.01-.486.077-.821.537-.874A.893.893,0,0,1,97.624,26.1Z" transform="translate(-25.028)"/></g></svg>