<svg xmlns="http://www.w3.org/2000/svg" width="24.128" height="24.131" viewBox="0 0 24.128 24.131"><defs><style>.a{fill:#2e7b79;}</style></defs><g transform="translate(-7.994 -8)"><path class="a" d="M32.122,53.862V58.17a.862.862,0,0,1-.862.862H29.537V57.308a.862.862,0,0,0-1.723,0v1.723H24.367V55.585a.862.862,0,0,0-1.723,0v3.447H19.2V57.308a.862.862,0,0,0-1.723,0v1.723H14.027V55.585a.862.862,0,0,0-1.723,0v3.447H9.571a18.187,18.187,0,0,1-1.323-3.772A10.082,10.082,0,0,1,7.994,53H31.261A.862.862,0,0,1,32.122,53.862Z" transform="translate(0 -32.075)"/><path class="a" d="M19.975,80h15.61a8.954,8.954,0,0,1-4.037,3.282c-1.39.536-2.814-.4-3.787-.4-1.051,0-2.37.948-3.788.4A8.7,8.7,0,0,1,19.975,80Z" transform="translate(-8.54 -51.32)"/><path class="a" d="M31.871,19.2H11.465c.429-2.75,1.89-5.242,4.215-5.857s3.694.594,5.231.965c.026-.228.063-.467.111-.713a4.2,4.2,0,0,1-2.4-1.7A3.939,3.939,0,0,1,18.278,8,4.207,4.207,0,0,1,21.83,9.849a4.082,4.082,0,0,1,.524,1.106,4.781,4.781,0,0,1,2.624-1.221.862.862,0,0,1,.281,1.7c-1.755.29-2.358,1.211-2.6,2.849,1.524-.386,2.8-1.471,5.025-.945C29.872,13.856,31.424,16.078,31.871,19.2Z" transform="translate(-2.474 0)"/></g></svg>