<svg xmlns="http://www.w3.org/2000/svg" width="63.15" height="63.15" viewBox="0 0 63.15 63.15"><defs><style>.a{fill:#b93273;}.b{fill:#fff;}</style></defs><g transform="translate(-152 -345.753)"><path class="a" d="M31.575,0A31.575,31.575,0,1,0,63.15,31.575,31.61,31.61,0,0,0,31.575,0Z" transform="translate(152 345.753)"/><g transform="translate(173.5 366.579)"><g transform="translate(0 0)"><path class="b" d="M142.552,138.752l6.162-6.162a2.687,2.687,0,0,0-3.8-3.8l-6.162,6.162-6.162-6.162a2.687,2.687,0,0,0-3.8,3.8l6.162,6.162-6.162,6.162a2.687,2.687,0,1,0,3.8,3.8l6.162-6.162,6.162,6.162a2.687,2.687,0,0,0,3.8-3.8Z" transform="translate(-128.002 -128.002)"/></g></g></g></svg>