<svg xmlns="http://www.w3.org/2000/svg" width="45" height="45" viewBox="0 0 45 45"><defs><style>.a{fill:#2e7b79;}.b{fill:#fff;stroke:#fff;}</style></defs><g transform="translate(-310 -478)"><path class="a" d="M17,0H45a0,0,0,0,1,0,0V25A20,20,0,0,1,25,45H0a0,0,0,0,1,0,0V17A17,17,0,0,1,17,0Z" transform="translate(310 478)"/><path class="b" d="M15.881,27.648a6.127,6.127,0,0,0-4.872,2.4A6.138,6.138,0,0,0,0,33.786c0,7.6,11.01,12.173,11.01,12.173s11.01-4.508,11.01-12.173A6.138,6.138,0,0,0,15.881,27.648Z" transform="translate(320.595 465.352)"/></g></svg>