<svg xmlns="http://www.w3.org/2000/svg" width="16.066" height="24.073" viewBox="0 0 16.066 24.073"><defs><style>.a{fill:#2e7b79;}</style></defs><g transform="translate(-18.3 -2.5)"><g transform="translate(18.3 2.5)"><path class="a" d="M58.481,8.379c0-2.787-2.053-5.879-3.928-5.879S50.6,5.592,50.6,8.379a3.869,3.869,0,0,0,2.686,4.054l-.2,12.67a1.449,1.449,0,0,0,1.444,1.47,1.434,1.434,0,0,0,1.444-1.47l-.2-12.67A3.84,3.84,0,0,0,58.481,8.379Z" transform="translate(-42.415 -2.5)"/><path class="a" d="M23.951,4.925a.627.627,0,0,0-.634.634V10.83a.281.281,0,0,1-.279.279h-.684a.281.281,0,0,1-.279-.279v-5.3a.658.658,0,0,0-.634-.608.627.627,0,0,0-.634.634V10.83a.281.281,0,0,1-.279.279h-.684a.281.281,0,0,1-.279-.279v-5.3a.634.634,0,1,0-1.267,0v6.411a2.09,2.09,0,0,0,1.875,2.078l-.2,12.848a1.449,1.449,0,0,0,1.444,1.47,1.434,1.434,0,0,0,1.444-1.47l-.177-12.822a2.089,2.089,0,0,0,1.875-2.078V5.534A.617.617,0,0,0,23.951,4.925Z" transform="translate(-18.3 -4.292)"/></g></g></svg>