<svg xmlns="http://www.w3.org/2000/svg" width="45" height="45" viewBox="0 0 45 45"><defs><style>.a{fill:#ffcc50;}.b{fill:#484848;}</style></defs><g transform="translate(-170 -304)"><rect class="a" width="45" height="45" rx="10" transform="translate(170 304)"/><g transform="translate(182.429 316.975)"><path class="b" d="M16.909,0H2.9A2.906,2.906,0,0,0,0,2.9V16.91a2.906,2.906,0,0,0,2.9,2.9H16.909a2.906,2.906,0,0,0,2.9-2.9V2.9A2.906,2.906,0,0,0,16.909,0ZM9.944,15.091a5.224,5.224,0,1,1,5.224-5.224A5.23,5.23,0,0,1,9.944,15.091Zm5.8-9.287A1.741,1.741,0,1,1,17.49,4.063,1.743,1.743,0,0,1,15.749,5.8Zm0,0" transform="translate(0 0)"/><path class="b" d="M392.58,90a.58.58,0,1,0,.58.58A.581.581,0,0,0,392.58,90Zm0,0" transform="translate(-376.832 -86.518)"/><path class="b" d="M156.063,150a4.063,4.063,0,1,0,4.063,4.063A4.068,4.068,0,0,0,156.063,150Zm0,0" transform="translate(-146.118 -144.196)"/></g></g></svg>