<svg xmlns="http://www.w3.org/2000/svg" width="62" height="56.807" viewBox="0 0 62 56.807"><defs><style>.a,.b{fill:#b93273;}.b{fill-rule:evenodd;}</style></defs><g transform="translate(0.579)"><g transform="translate(-0.348 0)"><rect class="a" width="4" height="18" transform="translate(-0.231 0.404)"/><rect class="a" width="4" height="18" transform="translate(61.769 56.404) rotate(180)"/><path class="a" d="M0,0H3.228V18.721H0Z" transform="translate(19.149 0) rotate(90)"/><path class="a" d="M0,0H3.228V18.721H0Z" transform="translate(42.389 56.808) rotate(-90)"/><path class="b" d="M31.933,69.974H30Q29.7,59,41.293,59t11.3,10.974H50.653q.322-9.11-9.36-9.11T31.933,69.974Z" transform="translate(-10.201 -20.913)"/><path class="a" d="M0,0H3.228V18.721H0Z" transform="translate(61.11) rotate(90)"/><rect class="a" width="3" height="20" transform="translate(-0.231 56.404) rotate(-90)"/><rect class="a" width="4" height="18" transform="translate(57.769 0.404)"/><rect class="a" width="4" height="18" transform="translate(3.769 56.404) rotate(180)"/><path class="a" d="M16.291,16.291V29.847H29.847V16.291ZM15,15H31.138V31.138H15Z" transform="translate(-4.888 -5.317)"/><path class="a" d="M56.291,16.291V29.847H69.847V16.291ZM55,15H71.138V31.138H55Z" transform="translate(-19.067 -5.317)"/><rect class="a" width="7" height="8" transform="translate(14.769 13.404)"/><rect class="a" width="7" height="8" transform="translate(40.769 13.404)"/></g></g></svg>