<svg xmlns="http://www.w3.org/2000/svg" width="48" height="32" viewBox="0 0 48 32"><defs><style>.a{fill:#0674bf;}.b{fill:#fff;}.c{fill:#ffef00;}.d{fill:none;stroke:#fff;stroke-width:0.5px;}</style></defs><g transform="translate(-249 -456.999)"><g transform="translate(249 456.999)"><rect class="a" width="48" height="32" rx="4" transform="translate(0)"/><g transform="translate(8.109 3.888)"><rect class="b" width="1.017" height="0.632" transform="translate(28.292 3.519)"/><rect class="b" width="1.017" height="0.632" transform="translate(26.995 3.519)"/><path class="b" d="M39.205,46.005h-.621v-.891H37.332v.891H28.28l-.11-.236.858-1.117v-.8H27.8l-1.36,1.77.775,1.656H40.458V45.114H39.205Z" transform="translate(-26.436 -43.672)"/><rect class="b" width="1.017" height="0.632" transform="translate(12.918 0.279)"/><rect class="b" width="1.017" height="0.632" transform="translate(3.384 0.471)"/><rect class="b" width="1.017" height="0.632" transform="translate(4.703 0.471)"/><path class="b" d="M340.9,42.2h-3.7l-.563-.469h3.933l-.41-.716h-4.938l-.079.253,1.7,1.413h2.918v.376h-3.153l-1.07-.892H333.4v1.89h-3.521v-.775h2.97V42.163h-4.8v2.805h6.62V43.477l.747.622h5.542l.777-.8v-.259Z" transform="translate(-308.677 -41.013)"/><rect class="b" width="2.345" height="1.024" transform="translate(15.258 1.788)"/></g><path class="c" d="M124.172,157.912l-6.338-4.767,6.226-3.813H112.909l-5.455,3.341v-3.341H99.675v8.58h7.778v-4.467l4.992,4.467Z" transform="translate(-87.338 -136.588)"/><g transform="translate(10.765 23.983)"><path class="b" d="M75.54,338.613v-4.251h1.115v.5a1.553,1.553,0,0,1,.563-.464,1.664,1.664,0,0,1,.724-.154,1.4,1.4,0,0,1,1.054.366,1.538,1.538,0,0,1,.35,1.1v2.9H78.207v-2.569a1.068,1.068,0,0,0-.155-.653.6.6,0,0,0-.5-.2.85.85,0,0,0-.638.24.9.9,0,0,0-.235.655v2.523Z" transform="translate(-75.54 -333.697)"/><path class="b" d="M253.358,335.928h1.134a1.816,1.816,0,0,1-.694,1.054,2.1,2.1,0,0,1-1.273.381,1.839,1.839,0,0,1-1.463-.62,2.469,2.469,0,0,1-.54-1.68,2.4,2.4,0,0,1,.532-1.647,1.841,1.841,0,0,1,1.455-.6,1.924,1.924,0,0,1,1.51.593,2.442,2.442,0,0,1,.532,1.688q0,.121,0,.182a1.078,1.078,0,0,1-.01.115H251.7a1.212,1.212,0,0,0,.245.755.8.8,0,0,0,.635.254.906.906,0,0,0,.481-.115A.781.781,0,0,0,253.358,335.928Zm-1.658-1.283h1.674a.972.972,0,0,0-.229-.655.8.8,0,0,0-.612-.225.764.764,0,0,0-.585.227A1.052,1.052,0,0,0,251.7,334.646Z" transform="translate(-239.285 -332.356)"/><path class="b" d="M455.03,331.1q-.157,0-.374.014t-.276.01a1.251,1.251,0,0,1-.894-.245,1.406,1.406,0,0,1-.24-.964v-2.3h-.563v-.8h.563V325.66h1.126v1.162h.657v.8h-.657v2.355a.259.259,0,0,0,.074.221.586.586,0,0,0,.305.053h.278Z" transform="translate(-428.465 -325.66)"/></g></g><line class="d" x2="41.032" transform="translate(252.466 468.196)"/><line class="d" x2="41.032" transform="translate(252.466 480.218)"/></g></svg>