<svg xmlns="http://www.w3.org/2000/svg" width="45" height="45" viewBox="0 0 45 45"><defs><style>.a{fill:#2e7b79;}.b{fill:none;stroke:#fff;}</style></defs><g transform="translate(-19 -977)"><g transform="translate(19 977)"><path class="a" d="M0,0H28A17,17,0,0,1,45,17V45a0,0,0,0,1,0,0H20A20,20,0,0,1,0,25V0A0,0,0,0,1,0,0Z"/></g><path class="b" d="M15.881,27.648a6.127,6.127,0,0,0-4.872,2.4A6.138,6.138,0,0,0,0,33.786c0,7.6,11.01,12.173,11.01,12.173s11.01-4.508,11.01-12.173A6.138,6.138,0,0,0,15.881,27.648Z" transform="translate(30.5 964.352)"/></g></svg>