<svg xmlns="http://www.w3.org/2000/svg" width="200.534" height="49.253" viewBox="0 0 200.534 49.253"><defs><style>.a{fill:#b93273;}</style></defs><g transform="translate(-56.42 -341.366)"><g transform="translate(56.42 341.366)"><path class="a" d="M1051.069,509.036a16.711,16.711,0,0,0-16.692,16.692v7.82a16.692,16.692,0,0,0,27.563,12.667l-6.826-7.949a6.214,6.214,0,0,1-10.115-3.39h22.762v-9.149a16.711,16.711,0,0,0-16.691-16.692M1045,524.4a6.214,6.214,0,0,1,12.14,0Z" transform="translate(-894.016 -501.101)"/><rect class="a" width="10.477" height="49.252" transform="translate(126.34 0.001)"/><path class="a" d="M956.472,502.086a16.607,16.607,0,0,0-6.309,1.239v-9.007H939.686V543.57h10.477v-1.245a16.69,16.69,0,0,0,23-15.452v-8.1a16.71,16.71,0,0,0-16.692-16.691m6.215,24.786a6.215,6.215,0,1,1-12.429,0h-.095v-8.1h.095a6.215,6.215,0,1,1,12.429,0Z" transform="translate(-850.37 -494.317)"/><path class="a" d="M1121.513,530.418l-2.771-2.5.006-.006-6.959-6.282a1.622,1.622,0,0,1-.06-1.218,1.43,1.43,0,0,1,.984-.96l.058-.016a1.932,1.932,0,0,1,2.35,1.393l10.016-2.561a12.27,12.27,0,0,0-14.924-8.849c-.118.03-.234.061-.35.095a11.817,11.817,0,0,0-7.931,7.6,11.981,11.981,0,0,0,1.751,11,5.2,5.2,0,0,0,.678.743l2.771,2.5-.006.007,6.959,6.282a1.621,1.621,0,0,1,.06,1.218,1.431,1.431,0,0,1-.984.961l-.058.015a1.932,1.932,0,0,1-2.35-1.392L1100.737,541a12.286,12.286,0,0,0,11.867,9.235,12.34,12.34,0,0,0,3.058-.387c.117-.03.234-.061.349-.095a11.816,11.816,0,0,0,7.931-7.6,11.984,11.984,0,0,0-1.751-11,5.165,5.165,0,0,0-.678-.743" transform="translate(-924.603 -501.098)"/><path class="a" d="M887.8,502.086a16.607,16.607,0,0,0-6.214,1.2v-8.969H871.109V543.57h10.477v-1.207a16.69,16.69,0,0,0,22.907-15.491v-8.1A16.71,16.71,0,0,0,887.8,502.086m6.215,24.786a6.215,6.215,0,1,1-12.429,0v-8.1a6.215,6.215,0,1,1,12.429,0Z" transform="translate(-818.76 -494.317)"/><path class="a" d="M790.692,509.036A16.711,16.711,0,0,0,774,525.561h0v24.792h10.477V525.728a6.215,6.215,0,0,1,12.429,0v24.626h10.477V525.728a16.711,16.711,0,0,0-16.692-16.692" transform="translate(-774 -501.101)"/><rect class="a" width="10.477" height="33.874" transform="translate(37.372 15.379)"/><path class="a" d="M848.565,494.317a5.239,5.239,0,1,0,5.239,5.239,5.239,5.239,0,0,0-5.239-5.239" transform="translate(-805.954 -494.317)"/></g></g></svg>