<svg xmlns="http://www.w3.org/2000/svg" width="80.203" height="19.698" viewBox="0 0 80.203 19.698"><defs><style>.a{fill:#fff;}</style></defs><g transform="translate(0)"><path class="a" d="M1041.053,509.036a6.684,6.684,0,0,0-6.676,6.676v3.128a6.676,6.676,0,0,0,11.024,5.066l-2.73-3.179a2.485,2.485,0,0,1-4.046-1.356h9.1v-3.659a6.683,6.683,0,0,0-6.676-6.676m-2.428,6.145a2.485,2.485,0,0,1,4.855,0Z" transform="translate(-978.24 -505.863)"/><rect class="a" width="4.19" height="19.698" transform="translate(50.529 0)"/><path class="a" d="M946.4,497.424a6.642,6.642,0,0,0-2.523.5v-3.6h-4.19v19.7h4.19v-.5a6.675,6.675,0,0,0,9.2-6.18V504.1a6.683,6.683,0,0,0-6.676-6.676m2.486,9.913a2.486,2.486,0,1,1-4.971,0h-.038V504.1h.038a2.486,2.486,0,1,1,4.971,0Z" transform="translate(-903.964 -494.317)"/><path class="a" d="M1109.047,517.583l-1.108-1,0,0-2.783-2.513a.65.65,0,0,1-.024-.487.572.572,0,0,1,.394-.384l.023-.006a.773.773,0,0,1,.94.557l4.006-1.024a4.907,4.907,0,0,0-5.969-3.539l-.14.038a4.726,4.726,0,0,0-3.172,3.038,4.792,4.792,0,0,0,.7,4.4,2.094,2.094,0,0,0,.271.3l1.108,1,0,0,2.783,2.513a.648.648,0,0,1,.024.487.572.572,0,0,1-.394.384l-.023.006a.773.773,0,0,1-.94-.557l-4.006,1.024a4.914,4.914,0,0,0,4.746,3.694,4.935,4.935,0,0,0,1.223-.155l.14-.038a4.725,4.725,0,0,0,3.172-3.038,4.793,4.793,0,0,0-.7-4.4,2.059,2.059,0,0,0-.271-.3" transform="translate(-1030.293 -505.857)"/><path class="a" d="M877.785,497.424a6.642,6.642,0,0,0-2.485.48v-3.587h-4.19v19.7h4.19v-.483a6.675,6.675,0,0,0,9.161-6.2V504.1a6.683,6.683,0,0,0-6.676-6.676m2.486,9.913a2.485,2.485,0,1,1-4.971,0V504.1a2.485,2.485,0,1,1,4.971,0Z" transform="translate(-850.172 -494.317)"/><path class="a" d="M780.676,509.036A6.683,6.683,0,0,0,774,515.645h0v9.916h4.19v-9.849a2.486,2.486,0,0,1,4.971,0v9.849h4.19v-9.849a6.683,6.683,0,0,0-6.676-6.676" transform="translate(-774 -505.863)"/><rect class="a" width="4.19" height="13.548" transform="translate(14.947 6.151)"/><path class="a" d="M845.421,494.317a2.1,2.1,0,1,0,2.1,2.1,2.1,2.1,0,0,0-2.1-2.1" transform="translate(-828.379 -494.317)"/></g></svg>