<svg xmlns="http://www.w3.org/2000/svg" width="48" height="32" viewBox="0 0 48 32"><defs><style>.a{fill:#c7c7c7;}.b{opacity:0;}.c{fill:#fff;}.d{fill:#f26122;}.e{fill:#ea1d25;}.f{fill:#f69e1e;}</style></defs><rect class="a" width="48" height="32" rx="4"/><g transform="translate(4 3)"><g class="b"><rect class="c" width="38.71" height="25.6" transform="translate(0.65 0.2)"/></g><rect class="d" width="10.21" height="16.68" transform="translate(14.9 4.66)"/><path class="e" d="M13.169,10.61a10.58,10.58,0,0,1,4-8.34,10.61,10.61,0,1,0,0,16.68A10.58,10.58,0,0,1,13.169,10.61Z" transform="translate(2.831 2.39)"/><path class="f" d="M.5.411H.43V0h.1L.66.29.78,0h.1V.409H.81V.1L.7.37H.62L.5.1V.41ZM.2.41H.14V.07H0V0H.35V.07H.2V.409Z" transform="translate(35.94 19.16)"/><path class="f" d="M17.16,10.6A10.61,10.61,0,0,1,0,18.943,10.61,10.61,0,0,0,1.78,4.053,10.4,10.4,0,0,0,0,2.263,10.61,10.61,0,0,1,17.16,10.6Z" transform="translate(20 2.397)"/></g></svg>