<svg xmlns="http://www.w3.org/2000/svg" width="29.949" height="19.25" viewBox="0 0 29.949 19.25"><defs><style>.a{fill:#fff;}</style></defs><g transform="translate(-2.5 -19.5)"><g transform="translate(2.5 19.5)"><path class="a" d="M24.176,21.517v-.451a1.657,1.657,0,0,0-3.309,0v.451A12.352,12.352,0,0,0,9.7,33.525H35.344A12.352,12.352,0,0,0,24.176,21.517Z" transform="translate(-7.533 -19.5)"/><path class="a" d="M31.091,71.7H3.889a1.326,1.326,0,1,0,0,2.649H31.059a1.349,1.349,0,0,0,1.389-1.324A1.3,1.3,0,0,0,31.091,71.7Z" transform="translate(-2.5 -55.099)"/></g></g></svg>