<svg xmlns="http://www.w3.org/2000/svg" width="47.347" height="47.345" viewBox="0 0 47.347 47.345"><defs><style>.a{fill:#b93273;fill-rule:evenodd;}</style></defs><path class="a" d="M75.026,61.039a.922.922,0,1,0-.415,1.8,12.6,12.6,0,1,1-6.808.306.922.922,0,1,0-.577-1.752,14.3,14.3,0,0,0-5.695,3.51,14.457,14.457,0,1,0,13.494-3.861Zm0,0" transform="translate(-52.005 -55.373)"/><path class="a" d="M46.091,40.014l-9.666-9.666a19.741,19.741,0,1,0-6.076,6.076l9.666,9.666a4.3,4.3,0,1,0,6.076-6.076Zm-1.3,4.772a2.462,2.462,0,0,1-3.467,0l-10.2-10.2a.923.923,0,0,0-1.178-.106A17.908,17.908,0,0,1,7.089,7.089,17.908,17.908,0,0,1,34.48,29.94a.922.922,0,0,0,.106,1.178l10.2,10.2A2.455,2.455,0,0,1,44.786,44.786Zm0,0"/><path class="a" d="M161.857,150.72a.922.922,0,0,0-1.3,0l-4.264,4.264-4.264-4.264a.922.922,0,1,0-1.3,1.3l4.264,4.264-4.264,4.264a.922.922,0,1,0,1.3,1.3l4.264-4.264,4.264,4.264a.922.922,0,0,0,1.3-1.3l-4.264-4.264,4.264-4.264A.922.922,0,0,0,161.857,150.72Zm0,0" transform="translate(-136.537 -136.537)"/><path class="a" d="M197.923,59.224A.922.922,0,1,0,197,58.3.924.924,0,0,0,197.923,59.224Zm0,0" transform="translate(-178.783 -52.073)"/></svg>