<svg xmlns="http://www.w3.org/2000/svg" width="40.191" height="40.191" viewBox="0 0 40.191 40.191"><defs><style>.a{fill:#2e7b79;}</style></defs><g transform="translate(-6 -6)"><path class="a" d="M32.529,33.809a1.279,1.279,0,1,0,1.279-1.279A1.281,1.281,0,0,0,32.529,33.809Z" transform="translate(-4.316 -4.316)"/><path class="a" d="M26.6,26.6A1.279,1.279,0,1,0,24.79,24.79h0A1.279,1.279,0,0,0,26.6,26.6Z" transform="translate(-2.996 -2.996)"/><path class="a" d="M27.6,39.962A12.364,12.364,0,1,0,15.234,27.6,12.378,12.378,0,0,0,27.6,39.962ZM33.949,31a2.954,2.954,0,1,1-2.954-2.954A2.957,2.957,0,0,1,33.949,31ZM31.3,22.712A.837.837,0,1,1,32.484,23.9L23.9,32.484A.837.837,0,1,1,22.711,31.3Zm-9.188-.6h0a3.025,3.025,0,0,1,4.178,0,2.954,2.954,0,1,1-4.178,0Z" transform="translate(-1.502 -1.502)"/><path class="a" d="M7.557,30.885c-.008.025-.017.042-.025.067a3.716,3.716,0,0,0,2.01,4.84.411.411,0,0,0,.059.025,2.038,2.038,0,0,1,1.2,1.867,3.717,3.717,0,0,0,3.709,3.709,2.038,2.038,0,0,1,1.867,1.2.411.411,0,0,0,.025.059,3.73,3.73,0,0,0,4.84,2.018c.017-.008.042-.025.059-.033a2.013,2.013,0,0,1,2.169.461,3.709,3.709,0,0,0,5.258.008,2.028,2.028,0,0,1,2.16-.469.49.49,0,0,1,.067.033,3.727,3.727,0,0,0,4.84-2.018.411.411,0,0,0,.025-.059,2.038,2.038,0,0,1,1.867-1.2,3.717,3.717,0,0,0,3.709-3.709,2.033,2.033,0,0,1,1.181-1.859.252.252,0,0,0,.084-.033,3.727,3.727,0,0,0,2-4.865,1.954,1.954,0,0,1-.159-.77,1.989,1.989,0,0,1,.6-1.432v-.008a3.709,3.709,0,0,0,0-5.25,2.027,2.027,0,0,1-.435-2.227,3.719,3.719,0,0,0-2.01-4.84.3.3,0,0,0-.075-.033,2.018,2.018,0,0,1-1.189-1.859A3.717,3.717,0,0,0,37.684,10.8a2.033,2.033,0,0,1-1.859-1.181.352.352,0,0,0-.033-.084,3.727,3.727,0,0,0-4.865-2,1.978,1.978,0,0,1-2.2-.435,3.709,3.709,0,0,0-5.258-.008,2,2,0,0,1-2.144.469c-.025-.008-.059-.025-.084-.033a3.716,3.716,0,0,0-4.84,2.01.3.3,0,0,0-.033.075A2.018,2.018,0,0,1,14.507,10.8,3.717,3.717,0,0,0,10.8,14.507a2.038,2.038,0,0,1-1.2,1.867.411.411,0,0,0-.059.025,3.719,3.719,0,0,0-2.01,4.84.178.178,0,0,0,.025.059,2.058,2.058,0,0,1,.134.72,2.032,2.032,0,0,1-.6,1.457,3.709,3.709,0,0,0,0,5.25A2.028,2.028,0,0,1,7.557,30.885ZM26.1,12.054A14.042,14.042,0,1,1,12.054,26.1,14.065,14.065,0,0,1,26.1,12.054Z" transform="translate(0 0)"/></g></svg>