<svg xmlns="http://www.w3.org/2000/svg" width="51.899" height="51.899" viewBox="0 0 51.899 51.899"><defs><style>.a{fill:#b93273;}</style></defs><g transform="translate(-6 -6)"><path class="a" d="M32.529,34.181a1.652,1.652,0,1,0,1.651-1.652A1.654,1.654,0,0,0,32.529,34.181Z" transform="translate(2.155 2.155)"/><path class="a" d="M27.235,27.236A1.652,1.652,0,1,0,24.9,24.9h0a1.652,1.652,0,0,0,2.336,2.336Z" transform="translate(1.496 1.496)"/><path class="a" d="M31.2,47.165A15.965,15.965,0,1,0,15.234,31.2,15.983,15.983,0,0,0,31.2,47.165Zm8.2-11.579a3.814,3.814,0,1,1-3.814-3.814A3.819,3.819,0,0,1,39.4,35.586ZM35.98,24.89a1.081,1.081,0,1,1,1.529,1.529L26.418,37.509a1.081,1.081,0,0,1-1.529-1.529Zm-11.864-.773h0a3.907,3.907,0,0,1,5.394,0,3.815,3.815,0,1,1-5.394,0Z" transform="translate(0.75 0.75)"/><path class="a" d="M8.011,38.134c-.011.032-.022.054-.032.087a4.8,4.8,0,0,0,2.595,6.249.531.531,0,0,0,.076.032A2.631,2.631,0,0,1,12.2,46.913a4.8,4.8,0,0,0,4.79,4.79A2.631,2.631,0,0,1,19.4,53.249a.53.53,0,0,0,.032.076,4.816,4.816,0,0,0,6.25,2.606c.022-.011.054-.032.076-.043a2.6,2.6,0,0,1,2.8.595,4.79,4.79,0,0,0,6.79.011,2.619,2.619,0,0,1,2.79-.605.633.633,0,0,1,.087.043,4.812,4.812,0,0,0,6.249-2.606.531.531,0,0,0,.032-.076A2.631,2.631,0,0,1,46.913,51.7a4.8,4.8,0,0,0,4.79-4.79,2.626,2.626,0,0,1,1.524-2.4.326.326,0,0,0,.108-.043,4.813,4.813,0,0,0,2.584-6.282,2.523,2.523,0,0,1-.205-.995,2.568,2.568,0,0,1,.779-1.849v-.011a4.79,4.79,0,0,0,0-6.779,2.618,2.618,0,0,1-.562-2.876,4.8,4.8,0,0,0-2.595-6.25.387.387,0,0,0-.1-.043,2.606,2.606,0,0,1-1.535-2.4,4.8,4.8,0,0,0-4.79-4.79,2.626,2.626,0,0,1-2.4-1.524.454.454,0,0,0-.043-.108,4.813,4.813,0,0,0-6.282-2.584,2.555,2.555,0,0,1-2.844-.562,4.79,4.79,0,0,0-6.79-.011,2.577,2.577,0,0,1-2.768.605c-.032-.011-.076-.032-.108-.043a4.8,4.8,0,0,0-6.25,2.595.387.387,0,0,0-.043.1,2.606,2.606,0,0,1-2.4,1.535,4.8,4.8,0,0,0-4.79,4.79A2.631,2.631,0,0,1,10.649,19.4a.53.53,0,0,0-.076.032,4.8,4.8,0,0,0-2.595,6.25.229.229,0,0,0,.032.076,2.658,2.658,0,0,1,.173.93,2.624,2.624,0,0,1-.779,1.881,4.79,4.79,0,0,0,0,6.779A2.619,2.619,0,0,1,8.011,38.134ZM31.949,13.817A18.132,18.132,0,1,1,13.817,31.949,18.162,18.162,0,0,1,31.949,13.817Z"/></g></svg>