<svg xmlns="http://www.w3.org/2000/svg" width="16.359" height="16.361" viewBox="0 0 16.359 16.361"><defs><style>.a{fill:#2e7b79;stroke:#2e7b79;stroke-width:0.3px;}</style></defs><g transform="translate(0.149 0.15)"><path class="a" d="M4.154,10.676a17.039,17.039,0,0,0,5.667,4.439,8.821,8.821,0,0,0,3.172.938c.077,0,.15.007.226.007a2.626,2.626,0,0,0,2.037-.875.073.073,0,0,0,.013-.017,8.575,8.575,0,0,1,.642-.666c.156-.15.316-.306.469-.466a1.607,1.607,0,0,0-.007-2.393l-2-2A1.619,1.619,0,0,0,13.2,9.105a1.673,1.673,0,0,0-1.185.536l-1.191,1.191c-.11-.063-.223-.12-.329-.173a4.116,4.116,0,0,1-.366-.2A12.609,12.609,0,0,1,7.119,7.717,7.261,7.261,0,0,1,6.1,6.093c.313-.283.606-.579.889-.869.1-.1.2-.206.306-.309a1.706,1.706,0,0,0,.552-1.2,1.693,1.693,0,0,0-.552-1.2L6.3,1.528c-.116-.116-.226-.23-.339-.346C5.745.955,5.515.722,5.289.512A1.659,1.659,0,0,0,4.117,0,1.708,1.708,0,0,0,2.933.516L1.688,1.76A2.557,2.557,0,0,0,.926,3.4,6.159,6.159,0,0,0,1.388,6.06,15.489,15.489,0,0,0,4.154,10.676ZM1.738,3.468a1.76,1.76,0,0,1,.529-1.132L3.5,1.1A.9.9,0,0,1,4.117.815a.85.85,0,0,1,.6.29c.223.206.433.423.659.652.113.116.23.233.346.353l.992.992a.9.9,0,0,1,.313.622.9.9,0,0,1-.313.622c-.1.1-.206.21-.309.313-.309.313-.6.609-.919.892l-.017.017a.651.651,0,0,0-.166.739c0,.01.007.017.01.027a7.832,7.832,0,0,0,1.168,1.9,13.308,13.308,0,0,0,3.208,2.922,4.764,4.764,0,0,0,.439.24,4.116,4.116,0,0,1,.366.2l.037.02a.7.7,0,0,0,.323.083.706.706,0,0,0,.5-.226l1.245-1.245a.881.881,0,0,1,.609-.3.836.836,0,0,1,.589.3l2.007,2a.8.8,0,0,1-.01,1.255c-.14.15-.286.293-.443.443a9.584,9.584,0,0,0-.7.722,1.827,1.827,0,0,1-1.428.606c-.057,0-.116,0-.173-.007a8.014,8.014,0,0,1-2.869-.859,16.187,16.187,0,0,1-5.395-4.226A14.825,14.825,0,0,1,2.157,5.787,5.368,5.368,0,0,1,1.738,3.468Z" transform="translate(-0.912 0)"/></g></svg>