<svg xmlns="http://www.w3.org/2000/svg" width="17" height="16.999" viewBox="0 0 17 16.999"><defs><style>.a{fill:#b93273;}</style></defs><path class="a" d="M21,17.813a14.279,14.279,0,0,0-2.983-2c-.894-.429-1.221-.42-1.854.035-.527.381-.867.735-1.474.6a8.791,8.791,0,0,1-2.961-2.191A8.728,8.728,0,0,1,9.537,11.3c-.128-.611.226-.947.6-1.474.456-.633.469-.96.035-1.854a14,14,0,0,0-2-2.983c-.651-.651-.8-.509-1.155-.381a6.573,6.573,0,0,0-1.058.562A3.191,3.191,0,0,0,4.7,6.515c-.252.544-.544,1.558.943,4.2a23.459,23.459,0,0,0,4.125,5.5h0l0,0,0,0h0a23.551,23.551,0,0,0,5.5,4.125c2.646,1.487,3.66,1.195,4.2.943a3.136,3.136,0,0,0,1.341-1.27,6.573,6.573,0,0,0,.562-1.058C21.508,18.609,21.654,18.463,21,17.813Z" transform="translate(-4.49 -4.502)"/></svg>