<svg xmlns="http://www.w3.org/2000/svg" width="40.43" height="41.603" viewBox="0 0 40.43 41.603"><defs><style>.a{fill:#2e7b79;}</style></defs><g transform="translate(-4.846 -4)"><g transform="translate(4.846 4)"><path class="a" d="M59.066,4A2.172,2.172,0,0,0,56.9,6.17v7.171h4.339V6.17A2.172,2.172,0,0,0,59.066,4Z" transform="translate(-20.806 -4)"/><path class="a" d="M34.022,56.775H4.846a5.713,5.713,0,0,0,5.662,5.01h24.2a3.439,3.439,0,0,1-.69-2.071Z" transform="translate(-4.846 -20.182)"/><path class="a" d="M31.565,9.43,28,11.128V14.9a5.377,5.377,0,0,0,3.564,5.082,5.374,5.374,0,0,0,3.723-5.138v-3.71Zm2.593,4.209-3.086,3.086a.695.695,0,0,1-.978,0l-.971-.964a.7.7,0,0,1,.985-.985l.471.478,2.6-2.6a.691.691,0,0,1,.978,0A.7.7,0,0,1,34.158,13.638Z" transform="translate(-11.946 -5.664)"/><path class="a" d="M13.573,4a1.965,1.965,0,0,0-1.962,1.962V39.209H36.787a.687.687,0,0,1,.693.693v3.626a2.073,2.073,0,1,0,4.146,0V6.17A3.508,3.508,0,0,1,42.383,4H13.573Zm8.015,5.027a.688.688,0,0,1,.4-.624l4.25-2.025a.7.7,0,0,1,.589-.007L31.24,8.4a.692.692,0,0,1,.409.631V13.18a6.759,6.759,0,0,1-4.812,6.5l-.1.035a.67.67,0,0,1-.2.028.727.727,0,0,1-.208-.035,6.758,6.758,0,0,1-4.736-6.469V9.027ZM38.479,35.916H14.759a.693.693,0,0,1,0-1.387H38.479a.693.693,0,0,1,0,1.387Zm0-4.542H14.759a.693.693,0,0,1,0-1.387H38.479a.693.693,0,0,1,0,1.387Zm0-4.542H14.759a.693.693,0,1,1,0-1.387H38.479a.693.693,0,0,1,0,1.387Zm0-4.535H14.759a.693.693,0,0,1,0-1.387H38.479a.693.693,0,0,1,0,1.387Z" transform="translate(-6.92 -4)"/></g></g></svg>