<svg xmlns="http://www.w3.org/2000/svg" width="40.479" height="48.518" viewBox="0 0 40.479 48.518"><defs><style>.a{fill:#2e7b79;}</style></defs><path class="a" d="M98.717,23.371a11.307,11.307,0,0,0,8.263-3.424,11.307,11.307,0,0,0,3.423-8.262,11.309,11.309,0,0,0-3.424-8.262,11.683,11.683,0,0,0-16.525,0,11.307,11.307,0,0,0-3.424,8.262,11.307,11.307,0,0,0,3.424,8.263A11.31,11.31,0,0,0,98.717,23.371Zm0,0" transform="translate(-78.784)"/><path class="a" d="M40.381,261.188a28.864,28.864,0,0,0-.393-3.066,24.151,24.151,0,0,0-.754-3.082,15.226,15.226,0,0,0-1.267-2.875,10.849,10.849,0,0,0-1.911-2.49,8.425,8.425,0,0,0-2.745-1.725,9.487,9.487,0,0,0-3.5-.634,3.556,3.556,0,0,0-1.9.805c-.569.371-1.235.8-1.979,1.276a11.334,11.334,0,0,1-2.56,1.128,9.94,9.94,0,0,1-6.262,0,11.311,11.311,0,0,1-2.558-1.128c-.736-.47-1.4-.9-1.98-1.276a3.551,3.551,0,0,0-1.9-.805,9.473,9.473,0,0,0-3.5.635,8.416,8.416,0,0,0-2.745,1.724,10.85,10.85,0,0,0-1.91,2.49,15.254,15.254,0,0,0-1.267,2.875,24.21,24.21,0,0,0-.754,3.082A28.762,28.762,0,0,0,.1,261.189c-.064.928-.1,1.892-.1,2.865a8.056,8.056,0,0,0,2.393,6.1A8.614,8.614,0,0,0,8.559,272.4H31.92a8.612,8.612,0,0,0,6.165-2.249,8.052,8.052,0,0,0,2.393-6.1C40.478,263.076,40.446,262.112,40.381,261.188Zm0,0" transform="translate(0 -223.88)"/></svg>