<svg xmlns="http://www.w3.org/2000/svg" width="19.25" height="19.25" viewBox="0 0 19.25 19.25"><defs><style>.a{fill:#fff;}</style></defs><path class="a" d="M.481,5.786A.481.481,0,0,1,0,5.3V.481A.481.481,0,0,1,.481,0H5.3a.481.481,0,0,1,0,.963H.963V5.3A.481.481,0,0,1,.481,5.786Z"/><path class="a" d="M75.248,75.729H70.424a.481.481,0,0,1,0-.962h4.342V70.424a.481.481,0,0,1,.962,0v4.823A.481.481,0,0,1,75.248,75.729Z" transform="translate(-56.479 -56.479)"/><path class="a" d="M75.248,5.786a.481.481,0,0,1-.481-.481V.963H70.424a.481.481,0,0,1,0-.963h4.823a.481.481,0,0,1,.481.481V5.3A.481.481,0,0,1,75.248,5.786Z" transform="translate(-56.479)"/><path class="a" d="M5.3,75.729H.481A.481.481,0,0,1,0,75.248V70.424a.481.481,0,0,1,.963,0v4.342H5.3a.481.481,0,1,1,0,.962Z" transform="translate(0 -56.479)"/><g transform="translate(4.259 4.259)"><path class="a" d="M32.376,53.347H27.491a.481.481,0,0,1-.481-.481v-4.4h-4.4a.481.481,0,1,1,0-.962h4.885a.481.481,0,0,1,.481.481v4.4h4.4a.481.481,0,1,1,0,.962Z" transform="translate(-22.125 -42.615)"/><path class="a" d="M62.556,50.773a.481.481,0,0,1-.481-.481V48.462H60.463v1.829a.481.481,0,0,1-.963,0v-2.31a.481.481,0,0,1,.481-.481h2.575a.481.481,0,0,1,.481.481v2.31A.481.481,0,0,1,62.556,50.773Z" transform="translate(-52.305 -42.615)"/><path class="a" d="M25.181,25.662H22.606a.481.481,0,0,1-.481-.481V22.606a.481.481,0,0,1,.481-.481h2.575a.481.481,0,0,1,.481.481v2.575A.481.481,0,0,1,25.181,25.662ZM23.087,24.7H24.7V23.087H23.087Z" transform="translate(-22.125 -22.125)"/><path class="a" d="M62.556,25.662H59.981a.481.481,0,0,1-.481-.481V22.606a.481.481,0,0,1,.481-.481h2.575a.481.481,0,0,1,.481.481v2.575A.481.481,0,0,1,62.556,25.662ZM60.463,24.7h1.612V23.087H60.463Z" transform="translate(-52.305 -22.125)"/><path class="a" d="M25.181,63.037H22.606a.481.481,0,0,1-.481-.481V59.981a.481.481,0,0,1,.481-.481h2.575a.481.481,0,0,1,.481.481v2.575A.481.481,0,0,1,25.181,63.037Zm-2.093-.963H24.7V60.463H23.087Z" transform="translate(-22.125 -52.305)"/><path class="a" d="M47.981,25.662a.481.481,0,0,1-.481-.481V22.606a.481.481,0,1,1,.962,0v2.575A.481.481,0,0,1,47.981,25.662Z" transform="translate(-42.615 -22.125)"/></g></svg>