<svg xmlns="http://www.w3.org/2000/svg" width="45" height="45" viewBox="0 0 45 45"><defs><style>.a{fill:#b93273;}.b{fill:#fff;stroke:#fff;stroke-width:0.5px;}</style></defs><g transform="translate(-307 -164)"><g transform="translate(-3 -323)"><path class="a" d="M17,0H45a0,0,0,0,1,0,0V25A20,20,0,0,1,25,45H0a0,0,0,0,1,0,0V17A17,17,0,0,1,17,0Z" transform="translate(310 487)"/></g><g transform="translate(322.003 178.002)"><path class="b" d="M222.8,154.7a.405.405,0,0,0-.405.405v7.662a.405.405,0,0,0,.811,0v-7.662A.405.405,0,0,0,222.8,154.7Zm0,0" transform="translate(-213.385 -148.432)"/><path class="b" d="M104.8,154.7a.405.405,0,0,0-.405.405v7.662a.405.405,0,1,0,.811,0v-7.662A.405.405,0,0,0,104.8,154.7Zm0,0" transform="translate(-100.169 -148.432)"/><path class="b" d="M1.148,5.152v9.989a2.237,2.237,0,0,0,.595,1.543,2,2,0,0,0,1.449.626h7.671a2,2,0,0,0,1.449-.626,2.237,2.237,0,0,0,.595-1.543V5.152a1.549,1.549,0,0,0-.4-3.046H10.432V1.6A1.592,1.592,0,0,0,8.827,0h-3.6A1.592,1.592,0,0,0,3.621,1.6v.507H1.546a1.549,1.549,0,0,0-.4,3.046ZM10.862,16.5H3.192a1.284,1.284,0,0,1-1.232-1.358V5.188H12.095v9.953A1.284,1.284,0,0,1,10.862,16.5ZM4.432,1.6A.781.781,0,0,1,5.227.81h3.6a.781.781,0,0,1,.795.791v.507H4.432ZM1.546,2.918H12.508a.73.73,0,1,1,0,1.46H1.546a.73.73,0,0,1,0-1.46Zm0,0" transform="translate(0 0)"/><path class="b" d="M163.8,154.7a.405.405,0,0,0-.405.405v7.662a.405.405,0,0,0,.811,0v-7.662A.405.405,0,0,0,163.8,154.7Zm0,0" transform="translate(-156.777 -148.432)"/></g></g></svg>