<svg xmlns="http://www.w3.org/2000/svg" width="40.44" height="40.44" viewBox="0 0 40.44 40.44"><defs><style>.a{fill:#2e7b79;}</style></defs><path class="a" d="M39.488,15.615,36.38,14.94a16.916,16.916,0,0,0-1-2.412L37.1,9.851a1.209,1.209,0,0,0-.162-1.508L32.1,3.5a1.209,1.209,0,0,0-1.508-.162L27.912,5.06a16.916,16.916,0,0,0-2.412-1L24.825.952A1.208,1.208,0,0,0,23.644,0H16.8a1.208,1.208,0,0,0-1.181.952L14.94,4.06a16.916,16.916,0,0,0-2.412,1L9.851,3.339A1.209,1.209,0,0,0,8.343,3.5L3.5,8.343a1.209,1.209,0,0,0-.162,1.508L5.06,12.528a16.916,16.916,0,0,0-1,2.412l-3.108.676A1.209,1.209,0,0,0,0,16.8v6.848a1.209,1.209,0,0,0,.952,1.181L4.06,25.5a16.916,16.916,0,0,0,1,2.412L3.339,30.589A1.209,1.209,0,0,0,3.5,32.1l4.842,4.842a1.209,1.209,0,0,0,1.508.162l2.677-1.721a16.916,16.916,0,0,0,2.412,1l.676,3.108a1.208,1.208,0,0,0,1.181.952h6.848a1.208,1.208,0,0,0,1.181-.952L25.5,36.38a16.916,16.916,0,0,0,2.412-1L30.589,37.1a1.208,1.208,0,0,0,1.508-.162L36.939,32.1a1.209,1.209,0,0,0,.162-1.508L35.38,27.912a16.916,16.916,0,0,0,1-2.412l3.108-.676a1.209,1.209,0,0,0,.952-1.181V16.8A1.209,1.209,0,0,0,39.488,15.615ZM27.47,20.22a7.25,7.25,0,1,1-7.25-7.25A7.259,7.259,0,0,1,27.47,20.22Zm0,0"/></svg>