<svg xmlns="http://www.w3.org/2000/svg" width="21.036" height="20.154" viewBox="0 0 21.036 20.154"><defs><style>.a{fill:#b93273;}</style></defs><path class="a" d="M20.579,10.18a1.509,1.509,0,0,0-.837-2.573l-5.094-.74a.665.665,0,0,1-.5-.364L11.871,1.888a1.509,1.509,0,0,0-2.706,0L6.887,6.5a.666.666,0,0,1-.5.364l-5.094.74a1.509,1.509,0,0,0-.837,2.573l3.685,3.592a.667.667,0,0,1,.192.59l-.869,5.072a1.477,1.477,0,0,0,.329,1.223,1.524,1.524,0,0,0,1.86.367l4.555-2.4a.682.682,0,0,1,.62,0l4.556,2.4a1.493,1.493,0,0,0,.7.176,1.513,1.513,0,0,0,1.158-.543,1.476,1.476,0,0,0,.329-1.223l-.87-5.072a.667.667,0,0,1,.192-.59Z" transform="translate(0.001 -1.047)"/></svg>