<svg xmlns="http://www.w3.org/2000/svg" width="82" height="82" viewBox="0 0 82 82"><defs><style>.a{fill:none;}.b{fill:#c7c7c7;}.c{fill:#ffcc50;}.d{fill:#2e7b79;}</style></defs><g transform="translate(-16 -159)"><g transform="translate(-141.227 115.456)"><path class="a" d="M160.955,84.544a37.272,37.272,0,1,0,74.545,0H198.227V47.271A37.315,37.315,0,0,0,160.955,84.544Z"/><path class="b" d="M198.227,121.817a37.273,37.273,0,0,1,0-74.546V43.544a41,41,0,1,0,41,41H235.5A37.316,37.316,0,0,1,198.227,121.817Z"/><path class="c" d="M198.227,43.544v3.727A37.316,37.316,0,0,1,235.5,84.544h3.727A41.046,41.046,0,0,0,198.227,43.544Z"/></g><path class="d" d="M33,23.492a4.114,4.114,0,0,1-1.027,2.951,3.587,3.587,0,0,1-2.729,1.083c-3.219.069-8.978.262-12.3,0a3.073,3.073,0,0,1-2.348-.956c-1.9-2.126-1.26-5.78-1.162-6.387a14.319,14.319,0,0,1,.373-1.69,8.459,8.459,0,0,1,.6-1.518,5.443,5.443,0,0,1,.872-1.261,3.642,3.642,0,0,1,1.2-.833,3.866,3.866,0,0,1,1.569-.312,1.657,1.657,0,0,1,.591.335q.464.335,1.048.748a6.334,6.334,0,0,0,1.519.748,5.432,5.432,0,0,0,3.756,0,6.344,6.344,0,0,0,1.519-.748q.584-.412,1.048-.748a1.659,1.659,0,0,1,.591-.335,3.863,3.863,0,0,1,1.569.312,3.644,3.644,0,0,1,1.2.833,5.465,5.465,0,0,1,.872,1.261,8.463,8.463,0,0,1,.6,1.518,14.415,14.415,0,0,1,.373,1.69q.148.911.2,1.7T33,23.492ZM23.1,3.6a5.305,5.305,0,0,0-4,1.752,5.933,5.933,0,0,0-1.657,4.229A5.932,5.932,0,0,0,19.1,13.813a5.441,5.441,0,0,0,8,0,5.932,5.932,0,0,0,1.657-4.229A5.932,5.932,0,0,0,27.1,5.356,5.3,5.3,0,0,0,23.1,3.6Z" transform="translate(33.74 184.396)"/></g></svg>