<svg xmlns="http://www.w3.org/2000/svg" width="82" height="82" viewBox="0 0 82 82"><defs><style>.a{fill:none;}.b{fill:#c7c7c7;}.c{fill:#ffcc50;}</style></defs><g transform="translate(-157.227 -43.544)"><path class="a" d="M160.955,84.544a37.272,37.272,0,1,0,74.545,0H198.227V47.271A37.315,37.315,0,0,0,160.955,84.544Z"/><path class="b" d="M198.227,121.817a37.273,37.273,0,0,1,0-74.546V43.544a41,41,0,1,0,41,41H235.5A37.316,37.316,0,0,1,198.227,121.817Z"/><path class="c" d="M198.227,43.544v3.727A37.316,37.316,0,0,1,235.5,84.544h3.727A41.046,41.046,0,0,0,198.227,43.544Z"/></g></svg>