<svg xmlns="http://www.w3.org/2000/svg" width="81.319" height="69.939" viewBox="0 0 81.319 69.939"><defs><style>.a{fill:#b93273;}</style></defs><g transform="translate(0 0.005)"><g transform="translate(0 -0.005)"><g transform="translate(0 0)"><path class="a" d="M78.14,25.428H74.692L50.207.926a3.18,3.18,0,0,0-4.489,4.5l19.988,20H15.613l19.988-20a3.18,3.18,0,0,0-4.5-4.5L6.628,25.428H3.18a3.18,3.18,0,0,0,0,6.359H5.359L12.775,67.4a3.171,3.171,0,0,0,3.106,2.529H65.438A3.18,3.18,0,0,0,68.544,67.4L75.96,31.787H78.14a3.18,3.18,0,1,0,0-6.359ZM62.852,63.574H18.468L11.848,31.787H69.471Z" transform="translate(0 0.005)"/><path class="a" d="M33.641,65.942a3.18,3.18,0,0,0,3.18-3.18V50.053a3.18,3.18,0,1,0-6.351,0v12.71a3.18,3.18,0,0,0,3.171,3.18Z" transform="translate(-5.691 -8.722)"/><path class="a" d="M49.269,65.942a3.171,3.171,0,0,0,3.171-3.18V50.053a3.18,3.18,0,1,0-6.351,0v12.71A3.18,3.18,0,0,0,49.269,65.942Z" transform="translate(-8.609 -8.722)"/><path class="a" d="M64.891,65.942a3.18,3.18,0,0,0,3.18-3.18V50.053a3.18,3.18,0,1,0-6.351,0v12.71A3.18,3.18,0,0,0,64.891,65.942Z" transform="translate(-11.529 -8.722)"/></g></g></g></svg>