<svg xmlns="http://www.w3.org/2000/svg" width="32.929" height="40.123" viewBox="0 0 32.929 40.123"><defs><style>.a{fill:none;}.b{fill:#2e7b79;}</style></defs><path class="a" d="M23.584,45H11a.9.9,0,1,0,0,1.809h12.58a.9.9,0,1,0,0-1.809Z" transform="translate(-5.948 -26.501)"/><path class="a" d="M10.922,33.709H31.683a.9.9,0,0,0,.863-.9.872.872,0,0,0-.822-.9h-20.8a.909.909,0,0,0,0,1.809Z" transform="translate(-5.948 -18.786)"/><path class="a" d="M33.492,18.9H11a.9.9,0,0,0,0,1.809H33.492a.9.9,0,0,0,0-1.809Z" transform="translate(-5.948 -11.13)"/><path class="a" d="M52.214,65.5a4.214,4.214,0,1,0,4.214,4.214A4.214,4.214,0,0,0,52.214,65.5Zm.567,6.5h-.958v-.584c0-.251.111-.382.362-.382h.6Zm0-1.3h-.958V67.527h.6c.255,0,.362.132.362.382Z" transform="translate(-28.267 -38.573)"/><path class="b" d="M57.3,79.332v.584h.958V78.95h-.6C57.411,78.95,57.3,79.082,57.3,79.332Z" transform="translate(-33.744 -46.494)"/><path class="b" d="M57.9,70.43h-.6V73.6h.958V70.812C58.258,70.562,58.151,70.43,57.9,70.43Z" transform="translate(-33.744 -41.476)"/><path class="b" d="M28.534,0H4.6A4.6,4.6,0,0,0,0,4.588V35.519a4.67,4.67,0,0,0,4.563,4.6H28.325a4.6,4.6,0,0,0,4.6-4.588h0V4.485A4.44,4.44,0,0,0,28.534,0Zm-10.9,20.308H5.057a.9.9,0,0,1,0-1.809h12.58a.9.9,0,1,1,0,1.809ZM4.156,14.1a.909.909,0,0,1,.822-.991h20.8a.872.872,0,0,1,.822.9.9.9,0,0,1-.863.9H4.974A.909.909,0,0,1,4.156,14.1Zm19.79,21.25a4.214,4.214,0,1,1,4.214-4.214A4.214,4.214,0,0,1,23.947,35.355Zm3.6-25.776H5.057a.9.9,0,0,1,0-1.809H27.544a.9.9,0,1,1,0,1.809Z"/></svg>