<svg xmlns="http://www.w3.org/2000/svg" width="45" height="45" viewBox="0 0 45 45"><defs><style>.a{fill:#ffcc50;}.b{fill:#484848;}</style></defs><g transform="translate(-101 -304)"><rect class="a" width="45" height="45" rx="10" transform="translate(101 304)"/><path class="b" d="M7.391,16.215a17,17,0,0,1-2.626-.208A12.322,12.322,0,0,1,1.174,14.7L0,14.058l1.271-.418c1.389-.457,2.234-.74,3.28-1.184a4.364,4.364,0,0,1-2.243-2.6l-.3-.9L2.255,9A4.409,4.409,0,0,1,1.7,8.315,4.18,4.18,0,0,1,.994,5.83l.056-.783.469.182a4.385,4.385,0,0,1-.425-1.191A4.532,4.532,0,0,1,1.576.987l.409-.75.546.656A10.056,10.056,0,0,0,9.046,4.561a3.9,3.9,0,0,1,.237-2.07A3.876,3.876,0,0,1,10.858.684,4.733,4.733,0,0,1,13.605.009a4.387,4.387,0,0,1,2.7,1.112,9.053,9.053,0,0,0,.987-.33c.216-.081.462-.174.769-.28L19.19.122,18.452,2.23c.049,0,.1-.008.151-.01l1.209-.055-.714.976c-.041.056-.051.072-.066.094-.058.087-.129.195-1.11,1.5a1.847,1.847,0,0,0-.345,1.2,11.375,11.375,0,0,1-.621,4.575,8.1,8.1,0,0,1-2.173,3.219,9.6,9.6,0,0,1-4.55,2.2,14.006,14.006,0,0,1-2.842.279Zm0,0" transform="translate(114 319.205)"/></g></svg>