<svg xmlns="http://www.w3.org/2000/svg" width="16" height="16" viewBox="0 0 16 16"><defs><style>.a{fill:#2e7b79;}</style></defs><path class="a" d="M14.731,10.157a7.494,7.494,0,0,0-1.911-1.2.625.625,0,1,0-.508,1.142,6.251,6.251,0,0,1,1.594.993,2.492,2.492,0,0,1,.844,1.873v1.156a.626.626,0,0,1-.625.625H1.875a.626.626,0,0,1-.625-.625V12.969A2.492,2.492,0,0,1,2.094,11.1,8.786,8.786,0,0,1,8,9.25a4.63,4.63,0,1,0-2.817-.96,8.689,8.689,0,0,0-3.914,1.866A3.742,3.742,0,0,0,0,12.969v1.156A1.877,1.877,0,0,0,1.875,16h12.25A1.877,1.877,0,0,0,16,14.125V12.969A3.742,3.742,0,0,0,14.731,10.157ZM4.625,4.625A3.375,3.375,0,1,1,8,8,3.379,3.379,0,0,1,4.625,4.625Zm0,0"/></svg>